#!OML:ASF H:\MichaelJackson\Top Level 1\Subject 1\Session 1\male.ASF
:FULLY-SPECIFIED
:DEGREES
1111
root -6.8073 17.4132 26.982 -174.896 177.821 179.802
lowerback 4.83515 0.473517 -3.38395
upperback -0.0541806 0.472778 1.16549
thorax -2.80618 0.290836 3.06951
lowerneck -8.27123 -2.92416 0.437789
upperneck 12.3163 -4.13508 0.930651
head 5.07209 -1.94097 -0.0622114
rclavicle -6.21202e-016 9.64106e-015
rhumerus -27.8501 25.1868 -59.9771
rradius 97.2385
rwrist 11.277
rhand -43.8391 -36.9079
rfingers 7.12502
rthumb -16.6663 -1146.21
lclavicle -6.21202e-016 9.64106e-015
lhumerus -28.0522 -26.2189 63.7369
lradius 86.8213
lwrist 16.8733
lhand -28.0208 6.72566
lfingers 7.12502
lthumb -1.40605 36.7008
rfemur -35.6734 0.0355777 17.5963
rtibia 70.0843
rfoot 14.8101 4.40531
rtoes 23.3862
lfemur -29.2147 -1.785 -18.4172
ltibia 56.0764
lfoot -6.07329 -24.6324
ltoes -4.28829
1112
root -6.81774 17.3023 26.9474 -174.674 177.638 180.032
lowerback 5.28477 0.406856 -3.57299
upperback 0.0346935 0.356708 1.11056
thorax -2.95869 0.236848 3.12699
lowerneck -8.31335 -2.93247 0.368678
upperneck 12.0971 -4.12179 0.845237
head 5.01076 -1.94502 -0.0750249
rclavicle -6.69656e-015 9.93923e-015
rhumerus -28.3235 25.9496 -63.622
rradius 95.0281
rwrist 9.77531
rhand -39.3923 -34.9435
rfingers 7.12502
rthumb -12.3819 -1144.56
lclavicle -6.69656e-015 9.93923e-015
lhumerus -29.2822 -27.3997 67.2696
lradius 85.293
lwrist 18.2861
lhand -25.601 8.64068
lfingers 7.12502
lthumb 0.931106 38.6184
rfemur -36.7363 -1.21036 18.4602
rtibia 70.8984
rfoot 12.4388 5.06993
rtoes 20.4141
lfemur -29.3057 -0.227715 -19.9573
ltibia 54.7341
lfoot -9.32731 -21.1025
ltoes -6.12472
1113
root -6.82429 17.1869 26.9196 -174.35 177.191 180.115
lowerback 5.54811 0.267567 -3.54282
upperback 0.0813045 0.164323 1.11276
thorax -3.04263 0.141553 3.12756
lowerneck -8.35899 -2.97113 0.264451
upperneck 11.9351 -4.14658 0.763955
head 4.96868 -1.96824 -0.0840397
rclavicle 1.83876e-015 1.49089e-015
rhumerus -28.7421 26.2955 -66.9653
rradius 92.7675
rwrist 8.82257
rhand -34.3249 -33.4547
rfingers 7.12502
rthumb -7.49318 -1143.3
lclavicle 1.83876e-015 1.49089e-015
lhumerus -30.3339 -28.5875 70.7523
lradius 83.6567
lwrist 19.8223
lhand -23.0962 10.7758
lfingers 7.12502
lthumb 3.35021 40.7292
rfemur -37.6095 -2.32828 19.3811
rtibia 71.2273
rfoot 10.3128 4.86753
rtoes 17.801
lfemur -29.5901 1.00445 -21.3246
ltibia 53.7536
lfoot -12.0979 -17.2891
ltoes -5.73612
1114
root -6.82822 17.0696 26.8971 -173.937 176.489 180.048
lowerback 5.6422 0.0627804 -3.30467
upperback 0.0924897 -0.0940496 1.17897
thorax -3.06305 0.0101317 3.08314
lowerneck -8.41009 -3.04282 0.124863
upperneck 11.8006 -4.21337 0.694838
head 4.93721 -2.01236 -0.0867545
rclavicle 5.7896e-015 -1.78906e-015
rhumerus -29.1409 26.26 -70.0032
rradius 90.5175
rwrist 8.68782
rhand -28.7671 -32.0324
rfingers 7.12502
rthumb -2.12674 -1142
lclavicle 5.7896e-015 -1.78906e-015
lhumerus -31.245 -29.814 74.1888
lradius 81.9708
lwrist 21.2612
lhand -20.5003 12.883
lfingers 7.12502
lthumb 5.85685 42.782
rfemur -38.2665 -3.21899 20.2982
rtibia 71.1502
rfoot 8.31652 3.82276
rtoes 16.1099
lfemur -30.0546 1.82305 -22.4495
ltibia 53.2171
lfoot -14.4073 -13.6274
ltoes -3.25514
